<?xml version="1.0" encoding="utf-8"?>
<!-- Generator: Adobe Illustrator 21.1.0, SVG Export Plug-In . SVG Version: 6.00 Build 0)  -->
<svg version="1.0" id="Layer_1" xmlns="http://www.w3.org/2000/svg" xmlns:xlink="http://www.w3.org/1999/xlink" x="0px" y="0px"
	 viewBox="0 0 300 300" style="enable-background:new 0 0 300 300;" xml:space="preserve">
<g>
	<path style="fill:#F96302;" d="M60.049,283.518l-43.621-43.617c-3.09-3.087-3.497-3.67-7.428-1.622v52.701h52.642l0.076-0.147
		C63.705,287.02,63.126,286.595,60.049,283.518z"/>
	<path style="fill:#F96302;" d="M276.649,283.82c3.587,0,6.419-2.811,6.419-6.628c0-3.752-2.831-6.582-6.419-6.582
		c-3.626,0-6.456,2.83-6.456,6.582C270.192,281.01,273.023,283.82,276.649,283.82z M273.591,272.644h3.482
		c2.159,0,3.223,0.797,3.223,2.601c0,1.634-1.026,2.346-2.364,2.515l2.597,4.027h-1.549l-2.41-3.963h-1.597v3.963h-1.382V272.644z"
		/>
	<path style="fill:#F96302;" d="M278.921,83.281l-4.819-4.821c5.9-7.566,6.461-17.293,2.045-26.187
		c-0.665-1.834-1.5-3.67-0.007-5.159c2.667-2.66,4.904,0.09,5.238,0.43l9.586,9.577L290.96,9.02h-49.251l10.37,10.372
		c0.42,0.415,1.92,2.09-0.575,4.568c-1.418,1.418-2.666,1.004-4.324,0.179c-8.898-4.603-17.221-4.431-25.696,1.71l-4.834-4.823
		L228.66,9.02H9v219.665l20.038-20.039c0.331-0.323,3.237-2.905,5.643-0.499c1.165,1.168,1.179,2.657,0.428,4.073
		c-2.001,3.834-1.416,4.245,1.674,7.331l43.618,43.61c3.078,3.093,3.49,3.671,7.318,1.675c1.413-0.746,2.909-0.746,4.076,0.418
		c2.408,2.418-0.166,5.323-0.494,5.651L71.23,290.98h80.204c0.146-0.326,0.324-0.663,0.493-1.018
		c0.615-1.165-0.743-2.344-1.444-3.042l-24.526-24.526c-0.705-0.698-1.868-2.052-3.036-1.447c-1.266,0.608-2.295,1.357-3.468,0.193
		c-1.215-1.217-0.184-2.536,0.75-3.464l11.981-11.98l35.003,35.003l-10.283,10.282H291V156.9l-11.257,11.246
		c-0.189,0.188-1.827,1.641-3.182,0.279c-0.656-0.651-0.658-1.494-0.24-2.287c1.13-2.152,0.796-2.385-0.924-4.116l-29.777-29.766
		l11.472-11.469l29.761,29.764c1.641,1.646,2.289,1.956,4.148,1.031l-0.036-80.336L278.921,83.281z M242.864,30.276
		c2.572-2.56,5.168,0.842,5.834,1.508L266.67,49.76c0.668,0.662,4.073,3.252,1.51,5.823c-1.752,1.748-3.579,0.901-5.418-0.092
		c-3.911-2.409-8.737-4.071-13.133-1.512l-5.161-5.154c2.572-4.402,0.9-9.225-1.519-13.143
		C241.964,33.861,241.123,32.02,242.864,30.276z M181.792,55.895c0.329-0.329,3.23-2.906,5.645-0.492
		c1.159,1.165,1.159,2.665,0.425,4.071c-2.006,3.834-1.422,4.248,1.665,7.328l43.621,43.616c3.088,3.082,3.491,3.664,7.32,1.675
		c1.419-0.756,2.909-0.743,4.079,0.413c2.404,2.411-0.153,5.317-0.494,5.653l-23.513,23.509c-0.338,0.336-3.247,2.904-5.648,0.495
		c-1.176-1.165-1.188-2.656-0.432-4.08c1.997-3.814,1.414-4.235-1.669-7.315l-38.656-38.658l33.688,62.267l-2.405,2.405
		l-68.872-34.161c-1.665-0.838-3.329-1.674-5.077-2.091c-1.988-0.505-3.328-1.166-4.825,0.156c-1.078,0.921-3.491,2.996-5.488,0.993
		c-2.572-2.583-0.07-5.075,0.92-6.065l21.09-21.092l34.604,16.501l-17.913-33.199L181.792,55.895z M180.987,219.914
		c-0.569-1.031-1.035-2.067-0.049-3.05c1.451-1.446,2.904,0.474,3.28,0.85l10.11,10.11c0.37,0.369,2.289,1.82,0.835,3.274
		c-0.98,0.986-2.011,0.518-3.041-0.051c-2.197-1.348-4.907-2.29-7.389-0.837l-2.908-2.908
		C183.28,224.827,182.344,222.114,180.987,219.914z M185.808,213.316c-0.795,0.795-1.491,0.563-2.43,0.092
		c-5.012-2.571-9.691-2.478-14.464,0.974l-2.714-2.709l10.436-10.432l9.499,9.494C186.369,210.976,187.217,211.906,185.808,213.316z
		 M150.997,192.063l-43.108-43.124c-2.083-2.079-4.921-4.237-10.227-1.746l-4.831-4.825c19.183-16.029,41.647-10.026,58.213,6.539
		c16.557,16.567,22.573,39.018,6.542,58.214l-4.822-4.823C155.25,196.978,153.087,194.141,150.997,192.063z M174.663,161.238
		l-27.877-28.22l18.38,9.083l14.314,14.316c11.736,9.079,13.801,0.526,17.374,4.104c2.583,2.584-0.984,5.811-1.891,6.727
		l-9.472,9.458c-0.914,0.921-4.15,4.493-6.726,1.917C175.181,175.044,183.735,172.97,174.663,161.238z M143.091,63.424
		c-0.35-0.966-0.792-1.935,0-2.726c1.408-1.41,2.597,0.043,2.77,0.22l8.8,8.797l-10.118,10.118l-2.552-2.552
		C145.115,73.277,145.423,68.13,143.091,63.424z M138.869,65.184c-0.924,0.923-1.891,0.485-2.86-0.044
		c-2.068-1.277-4.618-2.157-6.948-0.79l-2.73-2.73c1.367-2.333,0.485-4.883-0.788-6.95c-0.53-0.967-0.97-1.934-0.046-2.858
		c1.364-1.365,2.728,0.439,3.079,0.793l9.501,9.499C138.428,62.458,140.233,63.821,138.869,65.184z M121.451,37.12l8.929,8.932
		c0.218,0.218,1.011,1.097-0.307,2.414c-0.75,0.751-1.407,0.529-2.287,0.092c-4.709-2.42-9.109-2.333-13.593,0.922l-2.553-2.551
		L121.451,37.12z M98.048,60.523l11.615-11.614l32.903,32.903l-11.615,11.613c-0.174,0.177-1.712,1.538-2.992,0.265
		c-0.615-0.616-0.615-1.411-0.219-2.155c1.056-2.025,0.747-2.244-0.879-3.873l-23.049-23.048c-1.629-1.63-1.848-1.938-3.876-0.882
		c-0.744,0.397-1.537,0.397-2.152-0.217C96.506,62.235,97.871,60.697,98.048,60.523z M81.455,77.117l12.447-12.448
		c0.175-0.177,1.714-1.539,2.992-0.263c0.614,0.615,0.614,1.404,0.22,2.154c-1.056,2.024-0.747,2.243,0.879,3.872l23.05,23.049
		c1.628,1.628,1.848,1.935,3.872,0.879c0.747-0.395,1.54-0.395,2.154,0.22c1.275,1.275-0.086,2.816-0.263,2.994l-12.447,12.447
		c-0.175,0.177-1.719,1.538-2.991,0.262c-0.618-0.615-0.618-1.406-0.222-2.155c1.055-2.023,0.747-2.245-0.878-3.871L99.751,93.744
		l-3.87,3.871l-2.551-2.549l3.872-3.875l-9.988-9.983c-1.626-1.628-1.849-1.935-3.871-0.881c-0.747,0.397-1.538,0.397-2.157-0.218
		C79.912,78.832,81.277,77.293,81.455,77.117z M64.825,93.744l12.449-12.449c0.176-0.174,1.717-1.541,2.992-0.264
		c0.616,0.617,0.616,1.408,0.218,2.157c-1.053,2.023-0.745,2.241,0.881,3.868l23.048,23.053c1.629,1.625,1.85,1.934,3.874,0.878
		c0.748-0.394,1.538-0.394,2.155,0.22c1.275,1.275-0.088,2.817-0.266,2.992l-12.447,12.447c-0.178,0.177-1.717,1.541-2.992,0.265
		c-0.615-0.616-0.617-1.409-0.22-2.157c1.056-2.021,0.747-2.241-0.88-3.869L70.589,97.836c-1.627-1.628-1.849-1.937-3.875-0.879
		c-0.745,0.393-1.538,0.393-2.153-0.223C63.287,95.46,64.648,93.922,64.825,93.744z M61.879,96.693l10.25,10.247
		c0.176,0.175,1.142,1.408-0.176,2.726c-1.231,1.234-2.599,0.307-3.696-0.526c-2.728-1.938-6.246-4.225-10.162-3.565l-2.551-2.55
		L61.879,96.693z M53.563,105.004l27.977,27.977c1.628,1.628,1.849,1.936,3.872,0.882c0.747-0.398,1.539-0.398,2.156,0.217
		c1.275,1.275-0.088,2.818-0.266,2.991l-12.447,12.452c-0.176,0.175-1.716,1.538-2.992,0.263c-0.617-0.616-0.617-1.41-0.22-2.155
		c1.056-2.023,0.748-2.244-0.879-3.871l-27.977-27.977L53.563,105.004z M34.474,124.097l6.335-6.335l2.547,2.551
		c-0.656,3.912,1.629,7.433,3.565,10.159c0.838,1.102,1.758,2.465,0.529,3.696c-1.319,1.32-2.551,0.352-2.728,0.174L34.474,124.097z
		 M122.7,239.514L99.19,263.018c-0.337,0.333-3.246,2.902-5.658,0.5c-1.159-1.174-1.16-2.67-0.423-4.082
		c2.002-3.817,1.416-4.238-1.661-7.315l-19.9-19.902l-7.315,7.313l-4.814-4.823l7.303-7.315l-18.905-18.893
		c-3.069-3.078-3.487-3.659-7.315-1.674c-1.402,0.754-2.917,0.744-4.07-0.422c-2.414-2.412,0.163-5.303,0.498-5.648l23.506-23.505
		c0.33-0.333,3.231-2.901,5.644-0.504c1.171,1.175,1.179,2.671,0.428,4.078c-1.999,3.825-1.411,4.237,1.664,7.314l43.621,43.627
		c3.074,3.085,3.492,3.67,7.319,1.665c1.417-0.741,2.904-0.733,4.075,0.427C125.595,236.275,123.031,239.182,122.7,239.514z
		 M95.635,204.31c-16.56-16.569-22.574-39.024-6.544-58.213l4.822,4.828c-2.49,5.315-0.322,8.145,1.763,10.223l43.116,43.119
		c2.083,2.084,4.918,4.248,10.228,1.757l4.828,4.831C134.658,226.881,112.205,220.875,95.635,204.31z M169.296,278.59l-2.714-2.711
		c2.482-3.235-0.05-6.044-1.83-7.815l-19.934-19.942c-1.782-1.775-4.589-4.301-7.814-1.822l-2.716-2.714
		c7.862-8.052,20.027-9.175,32.668,2.344C178.465,256.406,177.065,270.823,169.296,278.59z M186.747,261.142
		c-0.189,0.184-1.824,1.636-3.188,0.281c-0.648-0.656-0.655-1.497-0.235-2.289c1.128-2.153,0.799-2.39-0.929-4.122l-24.525-24.525
		c-1.73-1.73-1.972-2.059-4.118-0.94c-0.798,0.433-1.639,0.429-2.298-0.229c-1.356-1.354,0.099-2.998,0.284-3.183l12.352-12.352
		l35.01,35.009L186.747,261.142z M201.207,246.683l-2.716-2.717c3.321-4.255,3.652-9.732,1.17-14.746
		c-0.372-1.027-0.849-2.053-0.007-2.896c1.502-1.5,2.765,0.045,2.957,0.234l9.36,9.363L201.207,246.683z M228.485,219.401
		l-13.244,13.246c-0.181,0.194-1.457,1.275-2.811-0.08c-0.656-0.657-0.771-1.39-0.352-2.188c1.125-2.151,0.537-2.13-1.192-3.865
		l-24.523-24.513c-1.735-1.733-1.964-2.062-4.121-0.941c-0.79,0.425-1.637,0.416-2.289-0.24c-1.355-1.353,0.096-2.995,0.278-3.182
		l12.358-12.348l29.77,29.769c1.722,1.72,1.96,2.06,4.116,0.93c0.793-0.417,1.637-0.426,2.296,0.23
		C230.129,217.577,228.676,219.214,228.485,219.401z M225.301,187.587c-0.614-0.609-1.198-1.237-1.758-1.874
		c0.917,2.44,1.074,5.107,0.317,8.084c-0.94,3.47-3.092,6.562-7.538,11.003l-2.716-2.71c2.248-3.283,0.472-5.343-1.822-7.638
		l-7.066-7.066c-2.107-2.103-4.45-3.603-7.308-1.492l-2.714-2.715c4.444-4.449,7.537-6.608,11.006-7.535
		c5.357-1.365,9.691,0.219,13.538,3.892c-4.174-7.863-4.223-16.779,2.402-24.713l2.722,2.723c-1.409,2.995-0.197,4.579,0.971,5.749
		l24.25,24.244c1.17,1.171,2.76,2.389,5.758,0.982l2.713,2.715C247.246,200.272,234.612,196.904,225.301,187.587z M276.649,269.29
		c4.323,0,8.014,3.355,8.014,7.903c0,4.594-3.69,7.946-8.014,7.946c-4.358,0-8.047-3.352-8.047-7.946
		C268.601,272.644,272.291,269.29,276.649,269.29z M246.237,137.071c-0.705,4.17,1.727,7.909,3.785,10.811
		c0.86,1.125,1.793,2.505,0.709,3.771c2.027,1.316,3.965,2.905,5.776,4.719c9.318,9.315,12.692,21.943,3.66,32.763l-2.721-2.719
		c1.406-2.993,0.186-4.58-0.985-5.755l-24.241-24.239c-1.171-1.177-2.758-2.391-5.759-0.989l-2.708-2.71
		c6.525-5.455,13.709-6.387,20.431-4.225l-7.401-7.4l6.74-6.738L246.237,137.071z M253.262,108.953
		c-0.332,0.331-3.251,2.904-5.657,0.496c-1.163-1.168-1.163-2.67-0.42-4.075c1.992-3.825,1.418-4.241-1.67-7.329l-43.627-43.62
		c-3.081-3.071-3.491-3.658-7.318-1.664c-1.414,0.747-2.915,0.747-4.073-0.419c-2.41-2.408,0.166-5.324,0.5-5.65l21.917-21.927
		l62.276,62.25L253.262,108.953z M276.649,125.743c-1.307,1.307-2.759,0.332-3.924-0.565c-2.904-2.05-6.649-4.482-10.81-3.779
		l-2.721-2.713l6.742-6.746l10.905,10.902C277.029,123.033,278.058,124.34,276.649,125.743z"/>
	<path style="fill:#F96302;" d="M276.631,276.648c1.174,0,2.219-0.083,2.219-1.486c0-1.134-1.024-1.342-1.992-1.342h-1.885v2.828
		H276.631z"/>
</g>
</svg>
