<?xml version="1.0" encoding="utf-8"?>
<!-- Generator: Adobe Illustrator 19.2.1, SVG Export Plug-In . SVG Version: 6.00 Build 0)  -->
<!DOCTYPE svg PUBLIC "-//W3C//DTD SVG 1.1//EN" "http://www.w3.org/Graphics/SVG/1.1/DTD/svg11.dtd">
<svg version="1.1" xmlns="http://www.w3.org/2000/svg" xmlns:xlink="http://www.w3.org/1999/xlink" x="0px" y="0px"
	 viewBox="0 0 100 28" xml:space="preserve">
<style type="text/css">
	.st0{fill-rule:evenodd;clip-rule:evenodd;fill:#28ABE2;}
	.st1{fill:#28ABE2;}
	.st2{fill:#858F97;}
</style>
<g id="Layer_1">
	<polyline class="st0" points="4.9,1.5 7.7,1.5 6.2,12.2 6.2,12.4 6.1,13.1 6.3,12.5 6.4,12.3 8.1,7.6 10.9,7.6 8.3,13.7 9.1,20.8 
		6.2,20.8 5.9,15.7 5.9,15.4 5.9,14.5 5.8,15.2 5.1,20.8 2.1,20.8 4.9,1.5 	"/>
	<polyline class="st1" points="11.8,7.6 14.8,7.6 15,13 15,13.2 15,13.9 15.2,13 16,7.6 18.4,7.6 16.4,20.8 13.6,20.8 13.3,14.7 
		13.3,14.5 13.4,13.9 13.2,14.7 12.3,20.8 9.8,20.8 11.8,7.6 	"/>
	<path class="st1" d="M30.9,7.6l2.9,0L32,18.7c-0.3,1.9-1.5,2.5-4.1,2.4c-2.7-0.1-2.7-1.9-2.6-2.7c0.7-4.2,1.3-7.8,1.7-10.8l2.9,0
		l-1.7,10.9c0,0.2,0,0.4,0.3,0.5c0.3,0.1,0.5-0.2,0.5-0.4L30.9,7.6"/>
	<polyline class="st1" points="34.9,7.6 39.6,7.6 39.3,9.7 37.6,9.7 37.2,12.3 38.9,12.3 38.5,14.5 36.9,14.5 35.1,25.7 32.1,25.7 
		34.9,7.6 	"/>
	<path class="st0" d="M20,20.8l0.6-2.6h1.2l-0.3,2.6h2.8l0.8-13.2h-3.8l-4,13.2H20 M21.2,16l1.5-5.9l0.2-1l-0.1,1l0,0.3L22.1,16
		L21.2,16z"/>
	<polyline class="st2" points="43.5,7.6 41.5,20.8 38.8,20.8 40.7,7.6 43.5,7.6 	"/>
	<polyline class="st2" points="46.7,7.6 47,14.3 47.1,14.3 48.1,7.6 50.5,7.6 48.5,20.8 46,20.8 45.6,14.3 45.5,14.3 44.5,20.8 
		42.2,20.8 44.1,7.6 46.7,7.6 	"/>
	<path class="st2" d="M54.3,7.6c1.9,0,2.9,0.1,2.9,1.4c0,0.2,0,0.7-0.1,1.3L55.9,18c-0.1,1-0.2,1.7-0.7,2.1
		c-0.6,0.6-1.4,0.6-2.8,0.6h-3.2l2-13.2H54.3 M52.2,18.6c0.1,0,0.2,0,0.3,0c0.6,0,0.6-0.2,0.7-0.8l1.1-7.3c0-0.3,0.1-0.4,0.1-0.5
		c0-0.3-0.1-0.4-0.5-0.4c-0.1,0-0.2,0-0.3,0L52.2,18.6z"/>
	<path class="st2" d="M60.7,7.6L59.2,18c0,0.1,0,0.2,0,0.3c0,0.3,0.1,0.4,0.4,0.4c0.4,0,0.4-0.2,0.5-0.6l1.6-10.5h2.7l-1.6,10.6
		c-0.1,1-0.2,1.7-0.7,2.2c-0.6,0.6-1.4,0.6-2.8,0.6c-2,0-2.9-0.1-2.9-1.4c0-0.2,0-0.7,0.1-1.3L58,7.6H60.7"/>
	<path class="st2" d="M70.5,12.2h-2.7l0.3-1.9c0-0.2,0-0.3,0-0.3c0-0.3-0.1-0.4-0.4-0.4c-0.3,0-0.4,0.2-0.5,0.7L67,11.5
		c0,0.1,0,0.2,0,0.3c0,0.2,0.1,0.4,0.5,0.6l1.6,0.9c0.7,0.4,1,1,1,1.7c0,0.2,0,0.4-0.1,0.6l-0.4,2.5c-0.1,0.9-0.2,1.6-0.7,2.1
		c-0.5,0.6-1.4,0.6-2.9,0.6c-2,0-2.9-0.1-2.9-1.5c0-0.2,0-0.6,0.1-1.3l0.4-2.7h2.8L66,18c0,0.1,0,0.1,0,0.3c0,0.3,0.1,0.4,0.4,0.4
		c0.3,0,0.4-0.2,0.5-0.6l0.3-2c0-0.1,0-0.2,0-0.3c0-0.2,0-0.4-0.4-0.6l-1.7-1c-0.6-0.4-0.9-0.9-0.9-1.7c0-0.2,0-0.5,0.1-0.7l0.2-1.5
		c0.4-2.4,0.9-2.7,3.6-2.7c2,0,2.9,0.1,2.9,1.5c0,0.4-0.1,0.8-0.1,1.3L70.5,12.2"/>
	<polyline class="st2" points="77,7.6 76.7,9.7 75.2,9.7 73.6,20.8 70.8,20.8 72.5,9.7 71.1,9.7 71.4,7.6 77,7.6 	"/>
	<path class="st2" d="M80.4,7.6c2,0,2.9,0.2,2.9,1.5c0,0.3,0,0.7-0.1,1.3L83,11.7c-0.2,1.4-0.4,2.2-1.7,2.7c0.7,0.2,1,0.6,1,1.3
		c0,0.2,0,0.5-0.1,0.8l-0.6,4.3h-2.7l0.7-4.5c0-0.1,0-0.2,0-0.3c0-0.3-0.2-0.4-0.6-0.4c0,0-0.1,0-0.2,0L78,20.8h-2.7l2-13.2H80.4
		 M79.2,13.1c0.1,0,0.2,0,0.3,0c0.6,0,0.6-0.2,0.7-0.9l0.2-1.6c0-0.3,0.1-0.5,0.1-0.5c0-0.3-0.2-0.4-0.6-0.4c-0.1,0-0.1,0-0.2,0
		L79.2,13.1z"/>
	<polyline class="st2" points="87,7.6 85,20.8 82.2,20.8 84.2,7.6 87,7.6 	"/>
	<polyline class="st2" points="92,7.6 91.7,9.7 90,9.7 89.6,12.4 91.3,12.4 91,14.6 89.3,14.6 88.7,18.6 90.3,18.6 90,20.8 
		85.6,20.8 87.6,7.6 92,7.6 	"/>
	<path class="st2" d="M98.1,12.2h-2.7l0.3-1.9c0-0.2,0-0.3,0-0.3c0-0.3-0.1-0.4-0.4-0.4c-0.3,0-0.4,0.2-0.5,0.7l-0.2,1.3
		c0,0.1,0,0.2,0,0.3c0,0.2,0.1,0.4,0.5,0.6l1.6,0.9c0.7,0.4,1,1,1,1.7c0,0.2,0,0.4-0.1,0.6l-0.4,2.5c-0.1,0.9-0.2,1.6-0.7,2.1
		c-0.5,0.6-1.4,0.6-2.9,0.6c-2,0-2.9-0.1-2.9-1.5c0-0.2,0-0.6,0.1-1.3l0.4-2.7h2.8L93.7,18c0,0.1,0,0.1,0,0.3c0,0.3,0.1,0.4,0.4,0.4
		c0.3,0,0.4-0.2,0.5-0.6l0.3-2c0-0.1,0-0.2,0-0.3c0-0.2,0-0.4-0.4-0.6l-1.7-1c-0.6-0.4-0.9-0.9-0.9-1.7c0-0.2,0-0.5,0.1-0.7l0.2-1.5
		c0.4-2.4,0.9-2.7,3.6-2.7c2,0,2.9,0.1,2.9,1.5c0,0.4-0.1,0.8-0.1,1.3L98.1,12.2"/>
</g>
<g id="Layer_2">
	<g>
		<path class="st2" d="M66.7,21.6H68l0.9,4h-1.1l-0.2-0.8h-1.4l-0.4,0.8h-1.2L66.7,21.6z M67.5,24l-0.2-0.9c0-0.2-0.1-0.3-0.1-0.5
			c-0.1,0.3-0.2,0.4-0.2,0.5L66.6,24H67.5z"/>
		<path class="st2" d="M70.5,22.9L70.3,24c-0.1,0.3-0.1,0.5-0.1,0.6c0,0.3,0.1,0.4,0.4,0.4c0.4,0,0.5-0.4,0.6-1l0.2-1.1h1l-0.2,1.3
			c-0.1,0.5-0.1,0.9-0.5,1.3c-0.3,0.2-0.6,0.4-1.1,0.4c-0.8,0-1.3-0.4-1.3-1c0-0.2,0-0.4,0.1-0.8l0.2-1.1H70.5z"/>
		<path class="st2" d="M73,23.6h-0.5l0.1-0.7h0.5l0.1-0.8h1l-0.1,0.8h0.5l-0.1,0.7H74l-0.3,2.1h-1L73,23.6z"/>
		<path class="st2" d="M76.2,22.8c0.9,0,1.5,0.6,1.5,1.4c0,0.9-0.7,1.6-1.7,1.6c-0.9,0-1.4-0.5-1.4-1.4
			C74.6,23.5,75.3,22.8,76.2,22.8z M75.5,24.4c0,0.3,0.2,0.6,0.5,0.6c0.4,0,0.7-0.4,0.7-0.8c0-0.4-0.2-0.6-0.5-0.6
			C75.8,23.6,75.5,23.9,75.5,24.4z"/>
		<path class="st2" d="M78.4,22.9h0.9l-0.1,0.5c0.3-0.4,0.6-0.6,0.9-0.6c0.4,0,0.7,0.2,0.8,0.5c0.3-0.4,0.6-0.5,0.9-0.5
			c0.6,0,0.9,0.3,0.9,0.9c0,0.1,0,0.3,0,0.5l-0.2,1.5h-0.9l0.2-1.5c0-0.1,0-0.1,0-0.2c0-0.3-0.1-0.4-0.4-0.4c-0.3,0-0.5,0.3-0.6,0.8
			l-0.2,1.3h-0.9l0.2-1.5c0-0.1,0-0.2,0-0.2c0-0.2-0.1-0.4-0.4-0.4c-0.4,0-0.5,0.3-0.6,0.8l-0.2,1.3H78L78.4,22.9z"/>
		<path class="st2" d="M84.8,22.8c0.9,0,1.5,0.6,1.5,1.4c0,0.9-0.7,1.6-1.7,1.6c-0.9,0-1.4-0.5-1.4-1.4
			C83.2,23.5,83.9,22.8,84.8,22.8z M84.1,24.4c0,0.3,0.2,0.6,0.5,0.6c0.4,0,0.7-0.4,0.7-0.8c0-0.4-0.2-0.6-0.5-0.6
			C84.4,23.6,84.1,23.9,84.1,24.4z"/>
		<path class="st2" d="M87.1,23.6h-0.5l0.1-0.7h0.5l0.1-0.8h1l-0.1,0.8h0.5l-0.1,0.7h-0.5l-0.3,2.1h-1L87.1,23.6z"/>
		<path class="st2" d="M89,22.9h1l-0.4,2.8h-1L89,22.9z M89.6,21.5c0.3,0,0.5,0.2,0.5,0.5s-0.2,0.5-0.5,0.5c-0.3,0-0.5-0.2-0.5-0.5
			C89.1,21.8,89.3,21.5,89.6,21.5z"/>
		<path class="st2" d="M90.2,22.9h1l0.4,1.4c0,0.1,0.1,0.3,0.1,0.5c0.1-0.2,0.2-0.4,0.2-0.5l0.8-1.4h1.1L92,25.7h-0.9L90.2,22.9z"/>
		<path class="st2" d="M94.6,24.6c0,0.4,0.2,0.5,0.5,0.5c0.2,0,0.5-0.1,0.7-0.3l0.5,0.5c-0.3,0.3-0.7,0.5-1.2,0.5
			c-0.9,0-1.4-0.5-1.4-1.4c0-1,0.7-1.6,1.6-1.6c0.9,0,1.4,0.6,1.4,1.4c0,0.1,0,0.2,0,0.3L94.6,24.6L94.6,24.6z M95.3,23.4
			c-0.3,0-0.5,0.2-0.6,0.5h1.1C95.8,23.6,95.6,23.4,95.3,23.4z"/>
	</g>
</g>
</svg>
