<?xml version="1.0" encoding="UTF-8"?> <svg xmlns="http://www.w3.org/2000/svg" width="504.042" height="144.266" viewBox="0 0 504.042 144.266"><g id="logo" transform="translate(-147.063 -166.901)"><path id="Path_311" data-name="Path 311" d="M510.19,292.8a3.572,3.572,0,0,0-2.556.936,4.52,4.52,0,0,0-1.266,2.668h7.343a4.262,4.262,0,0,0-1.073-2.682A3.281,3.281,0,0,0,510.19,292.8Z" fill="none"></path><path id="Path_312" data-name="Path 312" d="M536.987,211.8q-7.019,0-8.8,8.173H545.16Q544.112,211.8,536.987,211.8Z" fill="none"></path><path id="Path_313" data-name="Path 313" d="M451.31,292.8a3.575,3.575,0,0,0-2.558.936,4.52,4.52,0,0,0-1.266,2.668h7.344a4.262,4.262,0,0,0-1.073-2.682A3.28,3.28,0,0,0,451.31,292.8Z" fill="none"></path><path id="Path_314" data-name="Path 314" d="M566.707,292.96a3.536,3.536,0,0,0-2.929,1.334,5.806,5.806,0,0,0-1.058,3.7,5.575,5.575,0,0,0,1.058,3.629,3.607,3.607,0,0,0,2.957,1.293,3.487,3.487,0,0,0,2.9-1.306,7.078,7.078,0,0,0,0-7.357A3.535,3.535,0,0,0,566.707,292.96Z" fill="none"></path><path id="Path_315" data-name="Path 315" d="M391.8,292.96a3.613,3.613,0,0,0-2.957,1.293,5.584,5.584,0,0,0-1.058,3.63,5.8,5.8,0,0,0,1.058,3.7,3.911,3.911,0,0,0,5.859.028,7.053,7.053,0,0,0,0-7.343A3.487,3.487,0,0,0,391.8,292.96Z" fill="none"></path><path id="Path_316" data-name="Path 316" d="M541.516,292.8a3.575,3.575,0,0,0-2.558.936,4.52,4.52,0,0,0-1.266,2.668h7.344a4.262,4.262,0,0,0-1.073-2.682A3.281,3.281,0,0,0,541.516,292.8Z" fill="none"></path><path id="Path_317" data-name="Path 317" d="M473.7,213.159a10.034,10.034,0,0,0-7.91,3.248q-2.883,3.249-2.882,9.01t2.934,9.116a9.913,9.913,0,0,0,7.858,3.353,9.792,9.792,0,0,0,7.858-3.3q2.829-3.3,2.83-9.168,0-5.658-2.83-8.958A9.791,9.791,0,0,0,473.7,213.159Z" fill="none"></path><path id="Path_318" data-name="Path 318" d="M418.581,292.96a3.57,3.57,0,0,0-2.942,1.293,7.111,7.111,0,0,0-.014,7.4,4.042,4.042,0,0,0,5.872,0,7.189,7.189,0,0,0-.014-7.4A3.5,3.5,0,0,0,418.581,292.96Z" fill="none"></path><path id="Path_319" data-name="Path 319" d="M434.615,292.96a3.713,3.713,0,0,0-2.957,1.252,5.9,5.9,0,0,0,0,6.821,4.119,4.119,0,0,0,5.9.013,5.04,5.04,0,0,0,1.072-3.41,5.134,5.134,0,0,0-1.059-3.424A3.66,3.66,0,0,0,434.615,292.96Z" fill="none"></path><path id="Path_320" data-name="Path 320" d="M600.26,292.96a3.573,3.573,0,0,0-2.943,1.293,7.108,7.108,0,0,0-.013,7.4,4.042,4.042,0,0,0,5.872,0,7.195,7.195,0,0,0-.014-7.4A3.5,3.5,0,0,0,600.26,292.96Z" fill="none"></path><path id="Path_321" data-name="Path 321" d="M333.572,292.8a3.574,3.574,0,0,0-2.557.936,4.508,4.508,0,0,0-1.265,2.668h7.343a4.262,4.262,0,0,0-1.073-2.682A3.281,3.281,0,0,0,333.572,292.8Z" fill="none"></path><path id="Path_322" data-name="Path 322" d="M253.455,211.795q-7.021,0-8.8,8.173h16.973Q260.58,211.8,253.455,211.795Z" fill="none"></path><path id="Path_323" data-name="Path 323" d="M539.5,254.335a39.714,39.714,0,0,0,11.316-1.675,30.927,30.927,0,0,0,9.64-4.611l-4.82-12.573a26.935,26.935,0,0,1-7.23,3.614,25.3,25.3,0,0,1-7.963,1.311q-5.87,0-8.906-2.725t-3.562-8.906H561.4v-2.515a32.754,32.754,0,0,0-3.038-14.511,22.116,22.116,0,0,0-8.7-9.587,25.413,25.413,0,0,0-13.2-3.353,26.556,26.556,0,0,0-13.778,3.563,24.981,24.981,0,0,0-9.43,9.9,29.952,29.952,0,0,0-3.4,14.406,29.163,29.163,0,0,0,3.562,14.722,23.73,23.73,0,0,0,10.268,9.587A34.972,34.972,0,0,0,539.5,254.335ZM536.987,211.8q7.125,0,8.173,8.173H528.187Q529.966,211.8,536.987,211.8Z" fill="#6fab2c"></path><path id="Path_324" data-name="Path 324" d="M596.6,213.368q3.563,0,5.239,2.148t1.677,7.072V253.5h18.963V221.75q0-11.524-4.663-17.236t-14.091-5.71a21.213,21.213,0,0,0-10.164,2.41,20.976,20.976,0,0,0-7.543,6.915l-.943-7.858H567.267a124.679,124.679,0,0,1,.838,15.3V253.5h18.964V223.846a10.858,10.858,0,0,1,2.62-7.6A8.9,8.9,0,0,1,596.6,213.368Z" fill="#6fab2c"></path><path id="Path_325" data-name="Path 325" d="M397,193.175c-.174.247-.351.488-.526.733l.007.01C396.654,193.668,396.828,193.42,397,193.175Z" fill="none"></path><path id="Path_326" data-name="Path 326" d="M415.518,254.918c.065-.052.131-.1.2-.158l-.087.018C415.589,254.824,415.555,254.872,415.518,254.918Z" fill="none"></path><path id="Path_327" data-name="Path 327" d="M409.882,213.433c.1,0,.187.012.281.014-3.98-5.79-8.685-12.065-13.481-19.224-.455.657-.909,1.312-1.356,1.965-2.366,3.452-4.6,6.857-6.552,10.206,3.555,5.37,7.067,10.107,10.13,14.479A11.825,11.825,0,0,1,409.882,213.433Z" fill="#299481"></path><path id="Path_328" data-name="Path 328" d="M421.027,237.849a27.074,27.074,0,0,0-1.145-6.287,11.753,11.753,0,0,1-12.182,5.319,21.26,21.26,0,0,1,.884,4.828q.028.509.029,1.018a19.77,19.77,0,0,1-3.977,11.92l-.078.217a28.443,28.443,0,0,0,4.527.5c.265.007.53.02.8.02.294,0,.584-.013.875-.022a28.272,28.272,0,0,0,4.869-.58,25.1,25.1,0,0,0,5.438-15.637Q421.064,238.495,421.027,237.849Z" fill="#299481"></path><path id="Path_329" data-name="Path 329" d="M404.48,254.851l.078.013.078-.217C404.584,254.716,404.532,254.783,404.48,254.851Z" fill="#fff"></path><path id="Path_330" data-name="Path 330" d="M404.48,254.851c.052-.068.1-.135.156-.2a19.825,19.825,0,0,0,1.126-6.6q0-.51-.029-1.018c-.6-10.588-10.071-20.6-19.823-35.334-2.614,5.335-4.261,10.505-4.261,15.455a28.231,28.231,0,0,0,20.288,27.092c.22.065.44.129.662.188C403.217,254.592,403.846,254.728,404.48,254.851Z" fill="#6fab2c"></path><path id="Path_331" data-name="Path 331" d="M420.1,219.328c.121.222.241.444.358.665Q420.292,219.654,420.1,219.328Z" fill="#fff"></path><path id="Path_332" data-name="Path 332" d="M630.614,244.662h3.411v8.883h1.89v-8.883h3.411v-1.546h-8.711Z" fill="#6fab2c"></path><path id="Path_333" data-name="Path 333" d="M649.657,243.116l-3.608,6.945-3.632-6.945h-1.5v10.429h1.694v-6.9l2.8,5.252h1.227l2.822-5.374v7.018H651.1V243.116Z" fill="#6fab2c"></path><path id="Path_334" data-name="Path 334" d="M292.924,287.707h6.628v17.217h2.86V287.707h6.628v-2.364H292.924Z" fill="#006ab2"></path><path id="Path_335" data-name="Path 335" d="M318.776,290.733a5.781,5.781,0,0,0-2.722.633,4.587,4.587,0,0,0-1.9,1.842v-8.525h-2.75v20.241h2.75v-7.893a4.067,4.067,0,0,1,1.059-2.943,3.731,3.731,0,0,1,2.819-1.1,2.785,2.785,0,0,1,2.241.825,4.043,4.043,0,0,1,.7,2.641v8.47h2.777v-8.636Q323.754,290.733,318.776,290.733Z" fill="#006ab2"></path><path id="Path_336" data-name="Path 336" d="M333.518,290.733a6.559,6.559,0,0,0-3.438.907,6.165,6.165,0,0,0-2.352,2.558,8.19,8.19,0,0,0-.839,3.768,7.108,7.108,0,0,0,1.9,5.239,7.03,7.03,0,0,0,5.226,1.912,9.12,9.12,0,0,0,2.9-.482,6.777,6.777,0,0,0,2.378-1.306l-.852-1.98a6.88,6.88,0,0,1-4.373,1.567q-4.29,0-4.427-4.868h9.9v-.467a7.329,7.329,0,0,0-1.608-5.033A5.6,5.6,0,0,0,333.518,290.733ZM329.75,296.4a4.508,4.508,0,0,1,1.265-2.668,3.574,3.574,0,0,1,2.557-.936,3.281,3.281,0,0,1,2.448.922,4.262,4.262,0,0,1,1.073,2.682Z" fill="#006ab2"></path><path id="Path_337" data-name="Path 337" d="M364.1,293.813H353.126v-8.47h-2.805v19.581h2.805v-8.773H364.1v8.773h2.832V285.343H364.1Z" fill="#006ab2"></path><path id="Path_338" data-name="Path 338" d="M376.641,301.788,372.3,291.063h-2.942l5.83,13.558-.5,1.156a4.8,4.8,0,0,1-1.608,2.1,8.539,8.539,0,0,1-2.957,1.141l.605,2.145a9.367,9.367,0,0,0,3.974-1.526,8.378,8.378,0,0,0,2.681-3.589l6.464-14.989h-2.778Z" fill="#006ab2"></path><path id="Path_339" data-name="Path 339" d="M395.7,293.263a4.277,4.277,0,0,0-1.8-1.87,5.63,5.63,0,0,0-2.764-.66,5.911,5.911,0,0,0-3.231.88,5.829,5.829,0,0,0-2.159,2.5,9.551,9.551,0,0,0,.013,7.549,6.07,6.07,0,0,0,2.187,2.544,5.74,5.74,0,0,0,3.19.908,5.677,5.677,0,0,0,2.791-.661,4.236,4.236,0,0,0,1.8-1.9v2.365h2.75V284.683H395.7Zm-1,8.347a3.911,3.911,0,0,1-5.859-.028,5.8,5.8,0,0,1-1.058-3.7,5.584,5.584,0,0,1,1.058-3.63,3.613,3.613,0,0,1,2.957-1.293,3.487,3.487,0,0,1,2.9,1.307,7.053,7.053,0,0,1,0,7.343Z" fill="#006ab2"></path><path id="Path_340" data-name="Path 340" d="M406.866,291.461a4.292,4.292,0,0,0-1.7,2.105l-.248-2.5h-2.585a31.173,31.173,0,0,1,.22,3.9v9.956h2.75V297.2a4.341,4.341,0,0,1,.949-2.874,3.49,3.49,0,0,1,2.847-1.142,4.669,4.669,0,0,1,1.622.275l.055-2.53a4.906,4.906,0,0,0-1.32-.192A4.749,4.749,0,0,0,406.866,291.461Z" fill="#006ab2"></path><path id="Path_341" data-name="Path 341" d="M422.129,291.613a7.647,7.647,0,0,0-7.123,0,5.957,5.957,0,0,0-2.379,2.516,8.236,8.236,0,0,0-.839,3.81,8.144,8.144,0,0,0,.839,3.8,5.977,5.977,0,0,0,2.379,2.5,7.647,7.647,0,0,0,7.123,0,5.97,5.97,0,0,0,2.379-2.5,8.157,8.157,0,0,0,.839-3.8,8.249,8.249,0,0,0-.839-3.81A5.951,5.951,0,0,0,422.129,291.613Zm-.632,10.039a4.042,4.042,0,0,1-5.872,0,7.111,7.111,0,0,1,.014-7.4,3.57,3.57,0,0,1,2.942-1.293,3.5,3.5,0,0,1,2.9,1.293,7.189,7.189,0,0,1,.014,7.4Z" fill="#006ab2"></path><path id="Path_342" data-name="Path 342" d="M438.63,293.318a4.465,4.465,0,0,0-1.842-1.911,5.667,5.667,0,0,0-2.806-.674,6.07,6.07,0,0,0-3.231.866,5.843,5.843,0,0,0-2.2,2.435,8.669,8.669,0,0,0,0,7.205,5.758,5.758,0,0,0,2.2,2.421,6.144,6.144,0,0,0,3.231.852,5.493,5.493,0,0,0,2.806-.7,4.678,4.678,0,0,0,1.842-1.911v3q0,3.96-3.877,3.96a9.536,9.536,0,0,1-2.545-.33,12.3,12.3,0,0,1-2.488-1.018l-.468,2.173a10.8,10.8,0,0,0,5.528,1.375,6.843,6.843,0,0,0,4.937-1.608,6.349,6.349,0,0,0,1.664-4.772V291.063H438.63Zm-1.072,7.728a4.119,4.119,0,0,1-5.9-.013,5.9,5.9,0,0,1,0-6.821,3.713,3.713,0,0,1,2.957-1.252,3.66,3.66,0,0,1,2.956,1.252,5.134,5.134,0,0,1,1.059,3.424A5.04,5.04,0,0,1,437.558,301.046Z" fill="#006ab2"></path><path id="Path_343" data-name="Path 343" d="M451.254,290.733a6.561,6.561,0,0,0-3.438.907,6.169,6.169,0,0,0-2.351,2.558,8.19,8.19,0,0,0-.839,3.768,7.111,7.111,0,0,0,1.9,5.239,7.032,7.032,0,0,0,5.226,1.912,9.126,9.126,0,0,0,2.9-.482,6.791,6.791,0,0,0,2.379-1.306l-.852-1.98a6.886,6.886,0,0,1-4.373,1.567q-4.291,0-4.429-4.868h9.9v-.467a7.329,7.329,0,0,0-1.608-5.033A5.6,5.6,0,0,0,451.254,290.733Zm-3.768,5.666a4.52,4.52,0,0,1,1.266-2.668,3.575,3.575,0,0,1,2.558-.936,3.28,3.28,0,0,1,2.447.922,4.262,4.262,0,0,1,1.073,2.682Z" fill="#006ab2"></path><path id="Path_344" data-name="Path 344" d="M467.839,290.733a5.716,5.716,0,0,0-2.847.7,4.636,4.636,0,0,0-1.911,2.021l-.248-2.392h-2.585a31.173,31.173,0,0,1,.22,3.9v9.956h2.75v-7.893a4.067,4.067,0,0,1,1.059-2.943,3.732,3.732,0,0,1,2.819-1.1,2.789,2.789,0,0,1,2.242.825,4.05,4.05,0,0,1,.7,2.641v8.47h2.777v-8.636Q472.816,290.733,467.839,290.733Z" fill="#006ab2"></path><path id="Path_345" data-name="Path 345" d="M493.085,296.7h4.565v5.5a14.015,14.015,0,0,1-4.29.66,6.3,6.3,0,0,1-5.033-1.967,8.606,8.606,0,0,1-1.7-5.789,8.513,8.513,0,0,1,1.664-5.666,6.022,6.022,0,0,1,4.854-1.952,8.646,8.646,0,0,1,3,.495,9.62,9.62,0,0,1,2.75,1.649l1.018-2.117a8.45,8.45,0,0,0-2.984-1.773,11.328,11.328,0,0,0-3.81-.619,10.078,10.078,0,0,0-5.018,1.2,7.991,7.991,0,0,0-3.274,3.45,11.7,11.7,0,0,0-1.141,5.336,11.818,11.818,0,0,0,1.141,5.39,7.939,7.939,0,0,0,3.315,3.452,10.507,10.507,0,0,0,5.142,1.2,19.761,19.761,0,0,0,3.837-.371,11.964,11.964,0,0,0,3.121-1v-9.241h-7.15Z" fill="#006ab2"></path><path id="Path_346" data-name="Path 346" d="M510.135,290.733a6.56,6.56,0,0,0-3.437.907,6.163,6.163,0,0,0-2.351,2.558,8.19,8.19,0,0,0-.839,3.768,7.111,7.111,0,0,0,1.9,5.239,7.031,7.031,0,0,0,5.225,1.912,9.126,9.126,0,0,0,2.9-.482,6.791,6.791,0,0,0,2.379-1.306l-.852-1.98a6.886,6.886,0,0,1-4.373,1.567q-4.29,0-4.428-4.868h9.9v-.467a7.329,7.329,0,0,0-1.608-5.033A5.6,5.6,0,0,0,510.135,290.733Zm-3.767,5.666a4.52,4.52,0,0,1,1.266-2.668,3.572,3.572,0,0,1,2.556-.936,3.281,3.281,0,0,1,2.448.922,4.262,4.262,0,0,1,1.073,2.682Z" fill="#006ab2"></path><path id="Path_347" data-name="Path 347" d="M526.72,290.733a5.716,5.716,0,0,0-2.847.7,4.63,4.63,0,0,0-1.911,2.021l-.248-2.392h-2.585a31.366,31.366,0,0,1,.22,3.9v9.956h2.75v-7.893a4.067,4.067,0,0,1,1.059-2.943,3.732,3.732,0,0,1,2.819-1.1,2.789,2.789,0,0,1,2.242.825,4.05,4.05,0,0,1,.7,2.641v8.47H531.7v-8.636Q531.7,290.733,526.72,290.733Z" fill="#006ab2"></path><path id="Path_348" data-name="Path 348" d="M541.46,290.733a6.561,6.561,0,0,0-3.438.907,6.169,6.169,0,0,0-2.351,2.558,8.19,8.19,0,0,0-.839,3.768,7.112,7.112,0,0,0,1.9,5.239,7.032,7.032,0,0,0,5.226,1.912,9.122,9.122,0,0,0,2.9-.482,6.792,6.792,0,0,0,2.379-1.306l-.852-1.98a6.886,6.886,0,0,1-4.373,1.567q-4.291,0-4.429-4.868h9.9v-.467a7.329,7.329,0,0,0-1.608-5.033A5.6,5.6,0,0,0,541.46,290.733Zm-3.768,5.666a4.52,4.52,0,0,1,1.266-2.668,3.575,3.575,0,0,1,2.558-.936,3.281,3.281,0,0,1,2.447.922,4.262,4.262,0,0,1,1.073,2.682Z" fill="#006ab2"></path><path id="Path_349" data-name="Path 349" d="M554.992,291.461a4.292,4.292,0,0,0-1.705,2.105l-.248-2.5h-2.585a31.167,31.167,0,0,1,.22,3.9v9.956h2.75V297.2a4.341,4.341,0,0,1,.949-2.874,3.49,3.49,0,0,1,2.847-1.142,4.668,4.668,0,0,1,1.622.275l.055-2.53a4.906,4.906,0,0,0-1.32-.192A4.749,4.749,0,0,0,554.992,291.461Z" fill="#006ab2"></path><path id="Path_350" data-name="Path 350" d="M570.668,293.318a4.515,4.515,0,0,0-1.815-1.911,5.512,5.512,0,0,0-2.778-.674,5.747,5.747,0,0,0-3.19.907A6.056,6.056,0,0,0,560.7,294.2a8.759,8.759,0,0,0-.784,3.8,8.594,8.594,0,0,0,.771,3.753,5.839,5.839,0,0,0,2.159,2.49,5.9,5.9,0,0,0,3.231.88,5.677,5.677,0,0,0,2.791-.661,4.236,4.236,0,0,0,1.8-1.9v2.365h2.75V291.063h-2.75Zm-1.031,8.292a3.487,3.487,0,0,1-2.9,1.306,3.607,3.607,0,0,1-2.957-1.293,5.575,5.575,0,0,1-1.058-3.629,5.806,5.806,0,0,1,1.058-3.7,3.924,3.924,0,0,1,5.859-.041,7.078,7.078,0,0,1,0,7.357Z" fill="#006ab2"></path><path id="Path_351" data-name="Path 351" d="M581.091,286.636l-2.778.961v3.466h-2.7v2.145h2.7v7.178a4.836,4.836,0,0,0,1.183,3.521,4.443,4.443,0,0,0,3.328,1.21,6.507,6.507,0,0,0,2.063-.3v-2.255a5.145,5.145,0,0,1-1.458.22,2.386,2.386,0,0,1-1.719-.591,2.724,2.724,0,0,1-.619-2.022v-6.958h3.823v-2.145h-3.823Z" fill="#006ab2"></path><rect id="Rectangle_1095" data-name="Rectangle 1095" width="3.218" height="2.914" transform="translate(587.225 285.013)" fill="#006ab2"></rect><rect id="Rectangle_1096" data-name="Rectangle 1096" width="2.75" height="13.861" transform="translate(587.472 291.063)" fill="#006ab2"></rect><path id="Path_352" data-name="Path 352" d="M603.808,291.613a7.647,7.647,0,0,0-7.123,0,5.951,5.951,0,0,0-2.379,2.516,8.236,8.236,0,0,0-.839,3.81,8.144,8.144,0,0,0,.839,3.8,5.97,5.97,0,0,0,2.379,2.5,7.647,7.647,0,0,0,7.123,0,5.971,5.971,0,0,0,2.379-2.5,8.157,8.157,0,0,0,.837-3.8,8.249,8.249,0,0,0-.837-3.81A5.951,5.951,0,0,0,603.808,291.613Zm-.632,10.039a4.042,4.042,0,0,1-5.872,0,7.108,7.108,0,0,1,.013-7.4,3.573,3.573,0,0,1,2.943-1.293,3.5,3.5,0,0,1,2.9,1.293,7.195,7.195,0,0,1,.014,7.4Z" fill="#006ab2"></path><path id="Path_353" data-name="Path 353" d="M617.641,290.733a5.716,5.716,0,0,0-2.847.7,4.63,4.63,0,0,0-1.911,2.021l-.248-2.392H610.05a31.365,31.365,0,0,1,.22,3.9v9.956h2.75v-7.893a4.067,4.067,0,0,1,1.059-2.943,3.732,3.732,0,0,1,2.818-1.1,2.79,2.79,0,0,1,2.243.825,4.056,4.056,0,0,1,.7,2.641v8.47h2.777v-8.636Q622.618,290.733,617.641,290.733Z" fill="#006ab2"></path><rect id="Rectangle_1097" data-name="Rectangle 1097" width="3.3" height="3.301" transform="translate(626.193 301.623)" fill="#006ab2"></rect><path id="Path_354" data-name="Path 354" d="M429.7,184.1a4.659,4.659,0,1,0-1.352-6.448A4.66,4.66,0,0,0,429.7,184.1Z" fill="#6fab2c"></path><path id="Path_355" data-name="Path 355" d="M463.565,193.557a4.649,4.649,0,0,0-5.633,7.367,4.574,4.574,0,0,0,.538.434,4.659,4.659,0,0,0,6.448-1.353,4.735,4.735,0,0,0-1.353-6.448Z" fill="#6fab2c"></path><path id="Path_356" data-name="Path 356" d="M463.565,193.557a4.649,4.649,0,0,0-5.633,7.367,4.574,4.574,0,0,0,.538.434,4.631,4.631,0,0,0,.752.39c.074.031.149.057.224.084a4.663,4.663,0,0,0,.6.172c.069.015.137.033.206.045a4.6,4.6,0,0,0,.8.065c.035,0,.069-.005.1-.006a4.728,4.728,0,0,0,.713-.08c.052-.01.105-.017.157-.029a4.534,4.534,0,0,0,.743-.232c.047-.019.093-.042.14-.063a4.5,4.5,0,0,0,.633-.342c.032-.02.065-.037.1-.059a4.717,4.717,0,0,0,.617-.51c.043-.042.085-.087.127-.131a4.68,4.68,0,0,0-.823-7.1Z" fill="none"></path><path id="Path_357" data-name="Path 357" d="M473.7,213.159a10.034,10.034,0,0,0-7.91,3.248q-2.883,3.249-2.882,9.01t2.934,9.116a9.913,9.913,0,0,0,7.858,3.353,9.792,9.792,0,0,0,7.858-3.3q2.829-3.3,2.83-9.168,0-5.658-2.83-8.958A9.791,9.791,0,0,0,473.7,213.159Z" fill="none"></path><path id="Path_358" data-name="Path 358" d="M462.774,201.767a4.534,4.534,0,0,1-.743.232A4.564,4.564,0,0,0,462.774,201.767Z" fill="#6fab2c"></path><path id="Path_359" data-name="Path 359" d="M461.874,202.028a4.728,4.728,0,0,1-.713.08A4.728,4.728,0,0,0,461.874,202.028Z" fill="#6fab2c"></path><path id="Path_360" data-name="Path 360" d="M463.547,201.362a4.5,4.5,0,0,1-.633.342A4.5,4.5,0,0,0,463.547,201.362Z" fill="#6fab2c"></path><path id="Path_361" data-name="Path 361" d="M464.261,200.793a4.717,4.717,0,0,1-.617.51A4.64,4.64,0,0,0,464.261,200.793Z" fill="#6fab2c"></path><path id="Path_362" data-name="Path 362" d="M464.918,200.005a4.615,4.615,0,0,1-.53.657A4.684,4.684,0,0,0,464.918,200.005Z" fill="#6fab2c"></path><path id="Path_363" data-name="Path 363" d="M461.013,202.117c.015,0,.03,0,.045,0a4.6,4.6,0,0,1-.8-.065A4.711,4.711,0,0,0,461.013,202.117Z" fill="#6fab2c"></path><path id="Path_364" data-name="Path 364" d="M459.222,201.748a4.631,4.631,0,0,1-.752-.39A4.591,4.591,0,0,0,459.222,201.748Z" fill="#6fab2c"></path><path id="Path_365" data-name="Path 365" d="M484.393,200.271v6.706A16.759,16.759,0,0,0,477.582,201a21.48,21.48,0,0,0-9.744-2.2c-.143,0-.282.009-.423.012a6.542,6.542,0,0,1-9.995,4.147,6.318,6.318,0,0,1-.762-.606,6.659,6.659,0,0,1-.483-.513c-.181.1-.366.2-.544.313a22.916,22.916,0,0,0-8.435,9.378,33.478,33.478,0,0,0,0,27.87,22.54,22.54,0,0,0,8.435,9.325,22.925,22.925,0,0,0,12.207,3.3,19.615,19.615,0,0,0,9.482-2.411,21.567,21.567,0,0,0,7.073-5.867v7.859q0,5.866-3.091,8.643t-9.587,2.777a40.03,40.03,0,0,1-9.378-1.2,56.73,56.73,0,0,1-9.691-3.3l-2.83,13.83q9.534,4.609,22.527,4.61,15.192,0,23.051-6.862t7.858-19.96V200.271Zm-2.83,34.314a9.792,9.792,0,0,1-7.858,3.3,9.913,9.913,0,0,1-7.858-3.353q-2.934-3.353-2.934-9.116t2.882-9.01a10.034,10.034,0,0,1,7.91-3.248,9.791,9.791,0,0,1,7.858,3.3q2.829,3.3,2.83,8.958Q484.393,231.286,481.563,234.585Z" fill="#6fab2c"></path><path id="Path_366" data-name="Path 366" d="M460.051,202a4.663,4.663,0,0,1-.6-.172A4.709,4.709,0,0,0,460.051,202Z" fill="#6fab2c"></path><path id="Path_367" data-name="Path 367" d="M463.644,201.3c-.032.022-.065.039-.1.059C463.579,201.342,463.612,201.325,463.644,201.3Z" fill="#fff"></path><path id="Path_368" data-name="Path 368" d="M460.257,202.049c-.069-.012-.137-.03-.206-.045C460.12,202.019,460.188,202.037,460.257,202.049Z" fill="#fff"></path><path id="Path_369" data-name="Path 369" d="M464.388,200.662c-.042.044-.084.089-.127.131C464.3,200.751,464.346,200.706,464.388,200.662Z" fill="#fff"></path><path id="Path_370" data-name="Path 370" d="M459.446,201.832c-.075-.027-.15-.053-.224-.084C459.3,201.779,459.371,201.8,459.446,201.832Z" fill="#fff"></path><path id="Path_371" data-name="Path 371" d="M462.914,201.7c-.047.021-.093.044-.14.063C462.822,201.748,462.867,201.725,462.914,201.7Z" fill="#fff"></path><path id="Path_372" data-name="Path 372" d="M461.161,202.108c-.034,0-.068.006-.1.006C461.093,202.114,461.127,202.109,461.161,202.108Z" fill="#fff"></path><path id="Path_373" data-name="Path 373" d="M462.031,202c-.052.012-.105.019-.157.029C461.927,202.018,461.979,202.011,462.031,202Z" fill="#fff"></path><path id="Path_374" data-name="Path 374" d="M448.178,194.271a4.659,4.659,0,1,0-6.448,1.353A4.658,4.658,0,0,0,448.178,194.271Z" fill="#6fab2c"></path><path id="Path_375" data-name="Path 375" d="M466.113,175.616a4.744,4.744,0,1,0-1.377-6.565A4.743,4.743,0,0,0,466.113,175.616Z" fill="#6fab2c"></path><path id="Path_376" data-name="Path 376" d="M450.9,182.4a4.744,4.744,0,1,0-1.377-6.566A4.744,4.744,0,0,0,450.9,182.4Z" fill="#6fab2c"></path><path id="Path_377" data-name="Path 377" d="M468.746,183.992a3.669,3.669,0,1,0,5.078-1.065A3.669,3.669,0,0,0,468.746,183.992Z" fill="#6fab2c"></path><path id="Path_378" data-name="Path 378" d="M434.634,197.72a5.613,5.613,0,0,0-7.875.992c-.117.151-.2.317-.3.476a5.6,5.6,0,1,0,8.173-1.468Z" fill="#6fab2c"></path><g id="Group_30" data-name="Group 30"><path id="Path_379" data-name="Path 379" d="M435.627,205.6a5.613,5.613,0,0,0-8.868-6.883c-.117.151-.2.317-.3.476a5.6,5.6,0,0,0,1.29,7.4,5.67,5.67,0,0,0,.892.559c.1.05.2.087.3.131a5.672,5.672,0,0,0,.649.245c.121.035.243.062.365.09a5.7,5.7,0,0,0,.634.1c.124.013.249.025.374.03a5.707,5.707,0,0,0,.906-.025A5.591,5.591,0,0,0,435.627,205.6Z" fill="none"></path><path id="Path_380" data-name="Path 380" d="M429.6,207.523a5.672,5.672,0,0,1-.649-.245A5.672,5.672,0,0,0,429.6,207.523Z" fill="#006ab2"></path><path id="Path_381" data-name="Path 381" d="M428.643,207.147a5.67,5.67,0,0,1-.892-.559A5.67,5.67,0,0,0,428.643,207.147Z" fill="#006ab2"></path><path id="Path_382" data-name="Path 382" d="M430.6,207.718a5.7,5.7,0,0,1-.634-.1A5.738,5.738,0,0,0,430.6,207.718Z" fill="#006ab2"></path><path id="Path_383" data-name="Path 383" d="M431.187,207.765a5.664,5.664,0,0,0,.689-.042,5.707,5.707,0,0,1-.906.025C431.042,207.751,431.114,207.765,431.187,207.765Z" fill="#006ab2"></path><path id="Path_384" data-name="Path 384" d="M432.855,209.5q-.368.082-.745.129a7.7,7.7,0,0,1-.923.056,7.505,7.505,0,0,1-6.35-11.515l.061-.1a4.56,4.56,0,0,1,.346-.529c.013-.017.029-.032.043-.049-4.585-6.614-9.959-13.8-15.4-22.032-2.925,4.646-6.53,9.256-9.725,13.8,2.213-3.141,4.5-6.131,6.717-9.267-2.353,3.382-5.159,7.242-6.88,9.6,7.782,11.708,15.389,21.063,20.11,29.742q.189.325.358.665c2.522,4.771,4.146,9.349,4.408,14.014q.036.645.036,1.292a25.145,25.145,0,0,1-9.193,19.461,28.223,28.223,0,0,0,22.4-27.613q0-.725-.041-1.447C437.773,220.311,435.836,215.023,432.855,209.5Z" fill="#006ab2"></path><path id="Path_385" data-name="Path 385" d="M428.948,207.278c-.1-.044-.2-.081-.3-.131C428.743,207.2,428.846,207.234,428.948,207.278Z" fill="#fff"></path><path id="Path_386" data-name="Path 386" d="M430.97,207.748c-.125-.005-.25-.017-.374-.03C430.721,207.731,430.844,207.743,430.97,207.748Z" fill="#fff"></path><path id="Path_387" data-name="Path 387" d="M429.962,207.613c-.122-.028-.244-.055-.365-.09C429.719,207.558,429.84,207.585,429.962,207.613Z" fill="#fff"></path></g><path id="Path_388" data-name="Path 388" d="M219.954,168.137l-24.937,57.306L170.44,168.137H147.063L185.906,253.5h17.863l38.844-85.359Z" fill="#006ab2"></path><path id="Path_389" data-name="Path 389" d="M266.133,202.156a25.413,25.413,0,0,0-13.2-3.353,26.559,26.559,0,0,0-13.778,3.563,24.985,24.985,0,0,0-9.429,9.9,29.952,29.952,0,0,0-3.406,14.406,29.164,29.164,0,0,0,3.563,14.722,23.724,23.724,0,0,0,10.268,9.587,34.969,34.969,0,0,0,15.821,3.352,39.714,39.714,0,0,0,11.316-1.675,30.911,30.911,0,0,0,9.639-4.611l-4.82-12.573a26.936,26.936,0,0,1-7.23,3.614,25.305,25.305,0,0,1-7.962,1.311q-5.869,0-8.906-2.725t-3.563-8.906h33.424v-2.515a32.781,32.781,0,0,0-3.038-14.511A22.112,22.112,0,0,0,266.133,202.156Zm-21.479,17.812q1.78-8.172,8.8-8.173,7.124,0,8.172,8.173Z" fill="#006ab2"></path><path id="Path_390" data-name="Path 390" d="M310.872,201.632a14.885,14.885,0,0,0-6.078,7.544l-1.152-8.906H285.831a124.687,124.687,0,0,1,.837,15.3V253.5h18.965V226.779q0-11.421,11.944-11.421a20.591,20.591,0,0,1,8.7,2.1V200.165a12.608,12.608,0,0,0-5.973-1.152A17.429,17.429,0,0,0,310.872,201.632Z" fill="#006ab2"></path><path id="Path_391" data-name="Path 391" d="M357.811,240.294a10.92,10.92,0,0,1-5.029.944,37.237,37.237,0,0,1-10.687-1.624,34.7,34.7,0,0,1-9.744-4.558l-4.82,12.888q9.219,6.39,25.146,6.39,11,0,17.236-4.505a14.43,14.43,0,0,0,6.234-12.364q0-6.6-3.719-10.425t-12.207-5.815l-8.906-1.99a14.686,14.686,0,0,1-3.982-1.415,2.087,2.087,0,0,1-1.047-1.833,3.138,3.138,0,0,1,1.781-2.882,10.17,10.17,0,0,1,4.925-.995,26.235,26.235,0,0,1,8.277,1.467,37.653,37.653,0,0,1,8.591,4.191l5.029-12.573a42.235,42.235,0,0,0-10.373-4.715A38.974,38.974,0,0,0,353.2,198.8a32.021,32.021,0,0,0-12.416,2.253,20.022,20.022,0,0,0-8.434,6.234,14.621,14.621,0,0,0-3.039,9.116q0,6.392,3.615,10.006t11.787,5.291l8.592,1.991a15.031,15.031,0,0,1,4.977,1.624,2.732,2.732,0,0,1,1.309,2.357A2.887,2.887,0,0,1,357.811,240.294Z" fill="#006ab2"></path></g></svg> 